<svg width="150" height="150" viewBox="0 0 150 150" fill="none" xmlns="http://www.w3.org/2000/svg">
<g id="logo">
<g id="Group">
<path id="Vector" d="M94.1723 101.613L90.7597 105.213C90.7597 105.213 82.6369 113.756 60.4736 90.4229C38.3103 67.0895 46.4331 58.5467 46.4331 58.5467L48.5856 56.2742C53.8808 50.694 54.3834 41.7386 49.7557 35.1984L40.3054 21.8254C34.5752 13.7251 23.5123 12.6601 16.9495 19.5678L5.1816 31.9508C1.93399 35.3784 -0.241089 39.8111 0.0214208 44.7387C0.696445 57.3392 6.08164 84.4377 36.1127 116.066C67.9663 149.592 97.8549 150.928 110.073 149.72C113.943 149.345 117.303 147.252 120.011 144.402L130.661 133.182C137.861 125.607 135.836 112.631 126.626 107.336L112.3 99.0857C106.255 95.6131 98.8974 96.6331 94.1723 101.606V101.613Z" fill="url(#paint0_linear_1_69)"/>
<path id="Vector_2" d="M112.507 75.0027C120.662 75.0013 128.595 72.3416 135.102 67.4265C141.61 62.5113 146.338 55.6088 148.57 47.765C150.802 39.9211 150.416 31.5634 147.471 23.9585C144.526 16.3536 139.182 9.91605 132.249 5.62137C125.317 1.32668 117.173 -0.590998 109.052 0.158935C100.931 0.908869 93.2764 4.28554 87.2474 9.77723C81.2183 15.2689 77.1438 22.5763 75.6412 30.5919C74.1386 38.6075 75.2899 46.8945 78.9207 54.197C79.6071 55.5229 79.7857 57.0538 79.4232 58.5021L77.1881 66.8499C76.9668 67.6764 76.9669 68.5466 77.1884 69.3731C77.41 70.1995 77.8451 70.9531 78.4501 71.5581C79.0551 72.1631 79.8087 72.5983 80.6352 72.8198C81.4616 73.0413 82.3318 73.0414 83.1583 72.8201L91.5061 70.5851C92.9545 70.2225 94.4854 70.4012 95.8113 71.0876C100.998 73.6698 106.713 75.0101 112.507 75.0027Z" fill="url(#paint1_linear_1_69)"/>
</g>
<path id="Vector_3" d="M113.57 55.7135L112.736 55.1778C108.769 52.6269 103.751 49.7439 100.034 45.5065C96.1167 41.0423 94.2374 36.4575 94.2856 31.4889C94.344 25.9407 98.9639 21.4283 104.584 21.4283C109.045 21.4283 112.011 23.9282 113.57 25.7327C115.129 23.9282 118.095 21.4283 122.556 21.4283C128.176 21.4283 132.796 25.9407 132.854 31.4862C132.906 36.4575 131.027 41.0396 127.106 45.5038C123.389 49.7439 118.371 52.6269 114.404 55.1778L113.57 55.7135Z" fill="white"/>
</g>
<defs>
<linearGradient id="paint0_linear_1_69" x1="67.5028" y1="14.9998" x2="67.5028" y2="149.997" gradientUnits="userSpaceOnUse">
<stop stop-color="#FFE653"/>
<stop offset="1" stop-color="#FFCC70"/>
</linearGradient>
<linearGradient id="paint1_linear_1_69" x1="112.501" y1="0" x2="112.501" y2="75.0027" gradientUnits="userSpaceOnUse">
<stop stop-color="#FFE653"/>
<stop offset="1" stop-color="#FFCC70"/>
</linearGradient>
</defs>
</svg>
