<svg width="35" height="35" viewBox="0 0 35 35" fill="none" xmlns="http://www.w3.org/2000/svg">
<path d="M21.9733 23.7096L21.177 24.5496C21.177 24.5496 19.2817 26.5429 14.1103 21.0985C8.93897 15.6541 10.8343 13.6608 10.8343 13.6608L11.3365 13.1306C12.5721 11.8285 12.6893 9.73899 11.6095 8.21295L9.40448 5.09262C8.06745 3.20258 5.48613 2.95407 3.95485 4.56586L1.20903 7.45518C0.451259 8.25495 -0.0562534 9.28923 0.00499812 10.439C0.162502 13.3791 1.41903 19.702 8.4262 27.0819C15.8586 34.9046 22.8326 35.2161 25.6834 34.9344C26.5864 34.8469 27.3704 34.3586 28.0022 33.6936L30.4872 31.0755C32.1673 29.308 31.6948 26.2804 29.5457 25.0449L26.2031 23.1198C24.7926 22.3095 23.0758 22.5476 21.9733 23.7078V23.7096Z" fill="url(#paint0_linear_1_360)"/>
<path d="M26.2507 17.5004C28.1536 17.5001 30.0045 16.8795 31.5229 15.7327C33.0414 14.5858 34.1446 12.9753 34.6654 11.145C35.1862 9.31482 35.0961 7.36472 34.409 5.59026C33.7218 3.81581 32.4749 2.31372 30.8573 1.31164C29.2396 0.309556 27.3394 -0.137898 25.4446 0.0370845C23.5498 0.212067 21.7637 0.999949 20.3569 2.28133C18.9501 3.56271 17.9994 5.26774 17.6488 7.13803C17.2982 9.00833 17.5669 10.9419 18.414 12.6458C18.5742 12.9552 18.6159 13.3124 18.5313 13.6503L18.0098 15.5981C17.9581 15.791 17.9582 15.994 18.0099 16.1869C18.0615 16.3797 18.1631 16.5555 18.3042 16.6967C18.4454 16.8379 18.6212 16.9394 18.8141 16.9911C19.0069 17.0428 19.21 17.0428 19.4028 16.9912L21.3506 16.4697C21.6885 16.3851 22.0458 16.4268 22.3551 16.5869C23.5652 17.1894 24.8989 17.5022 26.2507 17.5004Z" fill="url(#paint1_linear_1_360)"/>
<path d="M26.4996 12.9997L26.3049 12.8747C25.3795 12.2795 24.2085 11.6068 23.3412 10.6181C22.4272 9.57643 21.9887 8.50666 22 7.34732C22.0136 6.05277 23.0916 4.99988 24.403 4.99988C25.4437 4.99988 26.1358 5.5832 26.4996 6.00423C26.8635 5.5832 27.5555 4.99988 28.5963 4.99988C29.9077 4.99988 30.9857 6.05277 30.9993 7.34669C31.0114 8.50666 30.5729 9.5758 29.658 10.6174C28.7908 11.6068 27.6198 12.2795 26.6943 12.8747L26.4996 12.9997Z" fill="white"/>
<defs>
<linearGradient id="paint0_linear_1_360" x1="15.7505" y1="3.5" x2="15.7505" y2="34.999" gradientUnits="userSpaceOnUse">
<stop stop-color="#FFE653"/>
<stop offset="1" stop-color="#FFCC70"/>
</linearGradient>
<linearGradient id="paint1_linear_1_360" x1="26.2492" y1="0" x2="26.2492" y2="17.5004" gradientUnits="userSpaceOnUse">
<stop stop-color="#FFE653"/>
<stop offset="1" stop-color="#FFCC70"/>
</linearGradient>
</defs>
</svg>
